# xmcd CD database file
# Copyright (C) 1997 Ti Kan
# 
# Track frame offsets:
#     183
#     15295
#     28683
#     43833
#     56520
#     67745
#     82820
#     96220
#     107608
#     123545
#     137545
#     149170
# 
# Disc length: 2207 seconds
# 
# Revision: 1
# Processed by: cddbd v1.4b41PL1 Copyright (c) Steve Scherf et al.
# Submitted via: DiscPlay 4.0.3
# 
DISCID=9a089d0c
DTITLE=Rockin' Dopsie - Saturday Night Zydeco
DYEAR=1900
DGENRE=
TTITLE0=Sweet Lucy
TTITLE1=I Can't Loose With the Stuff I Use
TTITLE2=Dopsie's Cajun Stomp
TTITLE3=No Good Woman
TTITLE4=Calinda
TTITLE5=Dopsie's Boogie
TTITLE6=Mardi Gras in New Orleans
TTITLE7=Shake Rattle and Roll
TTITLE8=Ella Mae
TTITLE9=Please Don't Leave Me
TTITLE10=Foot Stompin' Zydeco
TTITLE11=High Heel Sneakers
EXTD=
EXTT0=
EXTT1=
EXTT2=
EXTT3=
EXTT4=
EXTT5=
EXTT6=
EXTT7=
EXTT8=
EXTT9=
EXTT10=
EXTT11=
PLAYORDER=
